<?xml version="1.0" encoding="UTF-8" standalone="no"?><!DOCTYPE svg PUBLIC "-//W3C//DTD SVG 1.1//EN" "http://www.w3.org/Graphics/SVG/1.1/DTD/svg11.dtd"><svg width="100%" height="100%" viewBox="0 0 8 8" version="1.1" xmlns="http://www.w3.org/2000/svg" xmlns:xlink="http://www.w3.org/1999/xlink" xml:space="preserve" xmlns:serif="http://www.serif.com/" style="fill-rule:evenodd;clip-rule:evenodd;stroke-linejoin:round;stroke-miterlimit:2;"><g><path d="M6.219,4.817c-0.047,-0.031 -0.147,0.014 -0.155,0.07c-0.037,0.265 -0.209,1.272 -0.067,1.519c0.141,0.248 0.682,0.069 0.915,-0.035c0.231,-0.104 0.586,-0.356 0.483,-0.588c-0.116,-0.259 -0.954,-0.816 -1.176,-0.966Z" style="fill:#5b91cd;"/><path d="M3.227,5.107c-0.02,-0.06 -0.138,-0.09 -0.184,-0.046c-0.215,0.206 -1.059,0.969 -1.106,1.283c-0.047,0.313 0.55,0.529 0.825,0.599c0.274,0.069 0.758,0.092 0.827,-0.182c0.078,-0.306 -0.271,-1.37 -0.362,-1.654Z" style="fill:#5b91cd;"/><path d="M4.496,5.109c0.019,-0.061 0.139,-0.092 0.185,-0.049c0.219,0.207 1.079,0.971 1.129,1.287c0.05,0.317 -0.551,0.54 -0.829,0.613c-0.276,0.072 -0.765,0.099 -0.837,-0.177c-0.081,-0.308 0.263,-1.387 0.352,-1.674Z" style="fill:#5b91cd;"/><path d="M1.372,4.816c0.048,-0.03 0.147,0.019 0.152,0.075c0.027,0.266 0.158,1.28 0.007,1.522c-0.151,0.241 -0.684,0.041 -0.913,-0.072c-0.227,-0.113 -0.571,-0.379 -0.459,-0.607c0.126,-0.254 0.985,-0.778 1.213,-0.918Z" style="fill:#5b91cd;"/><path d="M3.817,0.48c1.788,0 2.876,0.925 3.24,1.92c0.903,2.471 -0.913,2.43 -3.24,2.4c-2.634,-0.034 -3.948,-0.364 -3.24,-2.4c0.347,-1.001 1.451,-1.92 3.24,-1.92Z" style="fill:#5293de;"/><path d="M3.823,1.081c1.291,0 2.077,0.668 2.339,1.387c0.653,1.784 -0.659,1.754 -2.339,1.732c-1.902,-0.024 -2.85,-0.262 -2.339,-1.732c0.251,-0.723 1.048,-1.387 2.339,-1.387Z" style="fill:#86b3e8;"/><path d="M3.109,1.858c0.02,-0.065 0.16,-0.175 0.24,-0.175c0.08,0 0.22,0.11 0.24,0.175c0.04,0.131 0.04,0.48 0,0.611c-0.02,0.065 -0.16,0.174 -0.24,0.174c-0.08,0 -0.22,-0.109 -0.24,-0.174c-0.04,-0.131 -0.04,-0.48 0,-0.611Z" style="fill:#08192c;"/><path d="M4.091,1.858c0.02,-0.065 0.16,-0.175 0.24,-0.175c0.08,0 0.22,0.11 0.24,0.175c0.04,0.131 0.04,0.48 -0,0.611c-0.02,0.065 -0.16,0.174 -0.24,0.174c-0.08,0 -0.22,-0.109 -0.24,-0.174c-0.04,-0.131 -0.04,-0.48 -0,-0.611Z" style="fill:#08192c;"/></g></svg>